<svg id="svg" version="1.1" xmlns="http://www.w3.org/2000/svg" xmlns:xlink="http://www.w3.org/1999/xlink" width="400" height="266.6666666666667" viewBox="0, 0, 400,266.6666666666667"><g id="svgg"><path id="path0" d="M59.467 20.267 C 59.467 40.356,59.471 40.533,60.000 40.533 C 60.356 40.533,60.533 40.711,60.533 41.067 C 60.533 41.599,60.711 41.600,230.267 41.600 L 400.000 41.600 400.000 20.800 L 400.000 0.000 229.733 0.000 L 59.467 0.000 59.467 20.267 M60.533 109.867 C 60.533 110.222,60.356 110.400,60.000 110.400 C 59.471 110.400,59.467 110.578,59.467 133.867 C 59.467 157.156,59.471 157.333,60.000 157.333 C 60.356 157.333,60.533 157.511,60.533 157.867 C 60.533 158.399,60.711 158.400,230.267 158.400 L 400.000 158.400 400.000 133.867 L 400.000 109.333 230.267 109.333 C 60.711 109.333,60.533 109.334,60.533 109.867 M60.533 226.667 C 60.533 227.022,60.356 227.200,60.000 227.200 C 59.471 227.200,59.467 227.378,59.467 246.933 L 59.467 266.667 183.867 266.667 L 308.267 266.667 308.267 246.933 C 308.267 227.378,308.262 227.200,307.733 227.200 C 307.378 227.200,307.200 227.022,307.200 226.667 C 307.200 226.134,307.022 226.133,183.867 226.133 C 60.711 226.133,60.533 226.134,60.533 226.667 " stroke="none" fill="#f48c6c" fill-rule="evenodd"></path><path id="path1" d="M0.000 20.800 L 0.000 41.600 20.267 41.600 C 40.356 41.600,40.533 41.595,40.533 41.067 C 40.533 40.711,40.711 40.533,41.067 40.533 C 41.595 40.533,41.600 40.356,41.600 20.267 L 41.600 0.000 20.800 0.000 L 0.000 0.000 0.000 20.800 M0.000 133.867 L 0.000 158.400 20.267 158.400 C 40.356 158.400,40.533 158.395,40.533 157.867 C 40.533 157.511,40.711 157.333,41.067 157.333 C 41.596 157.333,41.600 157.156,41.600 133.867 C 41.600 110.578,41.596 110.400,41.067 110.400 C 40.711 110.400,40.533 110.222,40.533 109.867 C 40.533 109.338,40.356 109.333,20.267 109.333 L 0.000 109.333 0.000 133.867 M0.000 246.400 L 0.000 266.667 20.800 266.667 L 41.600 266.667 41.600 246.933 C 41.600 227.378,41.595 227.200,41.067 227.200 C 40.711 227.200,40.533 227.022,40.533 226.667 C 40.533 226.138,40.356 226.133,20.267 226.133 L 0.000 226.133 0.000 246.400 " stroke="none" fill="#040404" fill-rule="evenodd"></path><path id="path2" d="" stroke="none" fill="#b89038" fill-rule="evenodd"></path><path id="path3" d="" stroke="none" fill="#b89038" fill-rule="evenodd"></path><path id="path4" d="" stroke="none" fill="#b89038" fill-rule="evenodd"></path></g></svg>